<?xml version="1.0" standalone="no"?>
<!DOCTYPE svg PUBLIC "-//W3C//DTD SVG 20010904//EN"
 "http://www.w3.org/TR/2001/REC-SVG-20010904/DTD/svg10.dtd">
<svg version="1.0" xmlns="http://www.w3.org/2000/svg"
 width="428.000000pt" height="428.000000pt" viewBox="0 0 428.000000 428.000000"
 preserveAspectRatio="xMidYMid meet">
<metadata>
Created by potrace 1.14, written by Peter Selinger 2001-2017
</metadata>
<g transform="translate(0.000000,428.000000) scale(0.100000,-0.100000)"
fill="#000000" stroke="none">
<path d="M1870 4274 c0 -5 18 -17 40 -27 22 -10 38 -22 36 -26 -2 -3 -29 -7
-59 -9 -147 -5 -295 -109 -372 -262 -27 -53 -26 -57 5 -38 24 15 37 4 19 -16
-8 -8 -18 -21 -24 -28 -32 -42 -110 -198 -121 -244 l-7 -28 29 27 c35 33 42
21 16 -30 -23 -46 -55 -136 -77 -218 -9 -33 -18 -67 -20 -75 -53 -190 -44
-178 -153 -206 -51 -12 -117 -37 -147 -54 -67 -38 -80 -55 -36 -45 42 9 39 2
-11 -28 -71 -42 -153 -132 -89 -98 13 7 22 8 26 1 3 -5 2 -10 -2 -10 -12 0
-74 -59 -107 -103 -15 -20 -31 -36 -34 -35 -39 8 -185 -74 -269 -150 -40 -36
-42 -45 -7 -32 39 15 39 13 -11 -42 -98 -109 -140 -239 -108 -337 33 -97 104
-158 227 -191 86 -24 227 -31 318 -17 l60 10 -33 14 c-35 15 -32 27 9 30 71 5
193 38 231 62 18 12 81 -27 127 -78 58 -62 123 -203 139 -300 3 -19 8 -38 11
-43 11 -17 13 -243 3 -303 -13 -84 -22 -98 -102 -150 -88 -59 -131 -98 -168
-153 -42 -63 -59 -108 -59 -160 0 -41 1 -44 14 -27 12 16 13 8 12 -61 -1 -74
8 -162 18 -171 3 -3 11 8 20 24 8 15 16 26 16 23 1 -3 2 -27 4 -55 1 -27 6
-66 10 -86 l8 -37 -44 -7 c-96 -14 -169 -48 -222 -102 -154 -156 -149 -150
-141 -190 4 -21 8 -49 10 -63 1 -14 3 -29 4 -33 2 -16 46 -24 85 -15 21 5 64
20 95 35 84 38 131 53 132 43 1 -6 2 -14 3 -20 7 -53 138 -88 245 -66 53 11
201 86 216 110 27 41 24 95 -9 171 -22 48 -34 96 -40 153 -6 55 -2 63 20 34
12 -15 13 -14 14 16 0 49 53 152 78 152 7 0 11 -4 8 -8 -2 -4 -1 -14 4 -21 6
-11 12 -6 23 16 27 52 110 96 210 111 161 25 317 -23 408 -123 22 -24 35 -32
40 -24 4 8 15 -4 27 -30 15 -31 20 -58 18 -106 l-2 -65 23 22 c32 30 29 13
-11 -63 -30 -57 -33 -70 -26 -111 8 -55 19 -70 66 -93 44 -20 115 -32 249 -40
88 -6 110 -4 130 9 28 19 33 57 10 76 -33 28 -15 33 93 25 165 -11 206 -10
241 11 17 10 34 27 37 37 9 28 -26 69 -72 87 -22 8 -55 30 -73 48 -19 17 -52
37 -75 42 -23 6 -61 17 -86 25 -57 19 -111 19 -157 0 -45 -19 -53 -12 -29 28
51 87 76 139 80 164 2 15 5 30 5 32 1 3 8 -4 16 -15 14 -18 15 -15 14 31 -1
28 -8 62 -16 77 -17 36 -17 40 6 33 18 -5 18 -4 5 36 -8 23 -21 53 -28 68 -21
40 -97 117 -136 136 -47 24 -46 22 -23 48 48 51 199 290 249 392 59 122 124
316 116 347 -1 4 11 16 27 27 31 22 67 96 73 149 2 18 6 33 8 34 3 1 23 -10
45 -24 106 -67 225 -106 342 -113 76 -5 117 8 64 20 -53 12 -34 22 33 18 220
-15 296 90 245 336 -18 87 -47 157 -74 177 -14 10 -25 25 -25 32 0 23 -62 105
-70 93 -4 -8 -16 2 -33 26 -14 21 -36 45 -48 53 -30 20 -47 39 -87 94 -30 40
-33 50 -27 85 5 33 3 42 -20 65 -14 14 -32 26 -40 26 -7 0 -16 8 -19 18 -4 11
-17 29 -31 42 -21 19 -35 23 -88 22 -98 -1 -231 -37 -278 -74 -24 -19 -39 -53
-39 -87 0 -29 -1 -29 -32 -20 -50 15 -60 18 -97 27 -28 6 -40 17 -63 60 l-28
52 43 48 c23 26 46 50 51 53 14 11 19 95 6 133 -6 19 -29 51 -51 69 l-39 34
21 19 c46 41 63 105 47 177 -12 56 -45 89 -92 90 -42 1 -46 18 -16 57 24 31
26 82 3 116 -20 31 -82 64 -120 64 -24 0 -34 9 -61 55 -42 70 -130 160 -207
212 -58 39 -166 93 -185 93 -6 0 1 -18 15 -40 26 -41 18 -64 -13 -38 -27 22
-119 59 -187 74 -49 11 -125 16 -125 8z"/>
</g>
</svg>
